<svg width="21" height="20" viewBox="0 0 21 20" fill="none" xmlns="http://www.w3.org/2000/svg">
<g clip-path="url(#clip0_68_354)">
<path d="M18.2772 15.5863C17.9748 16.285 17.6168 16.9282 17.202 17.5196C16.6365 18.3257 16.1736 18.8837 15.8168 19.1936C15.2638 19.7022 14.6712 19.9627 14.0366 19.9775C13.5811 19.9775 13.0317 19.8479 12.3922 19.585C11.7507 19.3232 11.161 19.1936 10.6219 19.1936C10.0565 19.1936 9.45011 19.3232 8.80149 19.585C8.15188 19.8479 7.62856 19.9849 7.22845 19.9985C6.61995 20.0244 6.01343 19.7565 5.40802 19.1936C5.02161 18.8566 4.53829 18.2788 3.9593 17.4603C3.33808 16.5863 2.82736 15.5727 2.42725 14.4172C1.99874 13.1691 1.78394 11.9605 1.78394 10.7904C1.78394 9.45007 2.07356 8.29406 2.65366 7.32532C3.10957 6.54719 3.7161 5.93339 4.47521 5.48278C5.23432 5.03218 6.05454 4.80256 6.93785 4.78787C7.42116 4.78787 8.05497 4.93737 8.8426 5.23119C9.62801 5.52599 10.1323 5.67549 10.3534 5.67549C10.5187 5.67549 11.0789 5.50068 12.0287 5.15217C12.9268 4.82897 13.6848 4.69515 14.3058 4.74787C15.9884 4.88366 17.2526 5.54698 18.0933 6.742C16.5884 7.65383 15.844 8.93095 15.8588 10.5693C15.8724 11.8454 16.3353 12.9074 17.2452 13.7506C17.6575 14.1419 18.118 14.4444 18.6303 14.6592C18.5192 14.9814 18.4019 15.29 18.2772 15.5863ZM14.4181 0.400343C14.4181 1.40057 14.0527 2.33448 13.3243 3.1989C12.4453 4.22652 11.3821 4.82033 10.2292 4.72663C10.2145 4.60664 10.206 4.48034 10.206 4.34763C10.206 3.38741 10.624 2.35979 11.3663 1.51957C11.7369 1.09415 12.2083 0.740419 12.7799 0.458242C13.3502 0.180275 13.8897 0.0265531 14.3971 0.000228882C14.4119 0.133944 14.4181 0.267667 14.4181 0.40033V0.400343Z" fill="#FEFCF5"/>
</g>
<defs>
<clipPath id="clip0_68_354">
<rect width="20" height="20" fill="white" transform="translate(0.117188)"/>
</clipPath>
</defs>
</svg>
