<svg width="21" height="20" viewBox="0 0 21 20" fill="none" xmlns="http://www.w3.org/2000/svg">
<path d="M10.7018 0C5.19599 0 0.732422 4.46345 0.732422 9.96929C0.732422 15.4754 5.19599 19.9385 10.7018 19.9385C16.2083 19.9385 20.6714 15.4754 20.6714 9.96929C20.6714 4.46381 16.2083 0.000476188 10.7017 0.000476188L10.7018 0ZM15.2737 14.3786C15.0952 14.6714 14.7118 14.7643 14.419 14.5845C12.0783 13.1548 9.13159 12.831 5.66135 13.6238C5.32695 13.7 4.99361 13.4905 4.91742 13.156C4.84087 12.8214 5.04956 12.4881 5.3848 12.4119C9.18242 11.5439 12.4399 11.9179 15.0678 13.5238C15.3606 13.7036 15.4535 14.0857 15.2737 14.3786ZM16.494 11.6637C16.269 12.0298 15.7904 12.1452 15.4249 11.9202C12.7452 10.2727 8.66028 9.79571 5.49064 10.7579C5.07957 10.882 4.6454 10.6504 4.52064 10.24C4.39683 9.82893 4.62861 9.3956 5.03897 9.2706C8.65956 8.17202 13.1606 8.70417 16.238 10.5952C16.6035 10.8202 16.719 11.2987 16.494 11.6637ZM16.5987 8.83702C13.3856 6.92857 8.08445 6.7531 5.01671 7.68417C4.52409 7.83357 4.00314 7.55548 3.85385 7.06286C3.70456 6.57 3.98242 6.04941 4.4754 5.89964C7.99695 4.8306 13.8511 5.03714 17.5504 7.23321C17.9944 7.49619 18.1397 8.06845 17.8766 8.51095C17.6147 8.95405 17.0409 9.10012 16.5992 8.83702H16.5987Z" fill="#FEFCF5"/>
</svg>
