<svg width="27" height="20" viewBox="0 0 27 20" fill="none" xmlns="http://www.w3.org/2000/svg">
<g clip-path="url(#clip0_68_313)">
<path d="M22.6813 1.668C21.0159 0.888773 19.2351 0.322462 17.3733 0C17.1447 0.413385 16.8775 0.969397 16.6934 1.4117C14.7143 1.11407 12.7533 1.11407 10.8106 1.4117C10.6265 0.969397 10.3533 0.413385 10.1226 0C8.25884 0.322462 6.476 0.890853 4.81054 1.67213C1.45129 6.74839 0.540657 11.6986 0.995976 16.5785C3.22401 18.2423 5.38324 19.253 7.50603 19.9144C8.03016 19.1931 8.49761 18.4263 8.90031 17.6181C8.13335 17.3267 7.39878 16.9671 6.70469 16.5495C6.88883 16.4131 7.06894 16.2705 7.24296 16.1237C11.4764 18.1038 16.0762 18.1038 20.259 16.1237C20.4351 16.2705 20.6152 16.4131 20.7973 16.5495C20.1012 16.9691 19.3646 17.3287 18.5976 17.6202C19.0003 18.4263 19.4658 19.1952 19.9919 19.9165C22.1167 19.2551 24.278 18.2444 26.506 16.5785C27.0403 10.9214 25.5934 6.01671 22.6813 1.668ZM9.47706 13.5774C8.20622 13.5774 7.16403 12.391 7.16403 10.9462C7.16403 9.50147 8.18396 8.31302 9.47706 8.31302C10.7702 8.31302 11.8123 9.49939 11.7901 10.9462C11.7921 12.391 10.7702 13.5774 9.47706 13.5774ZM18.0249 13.5774C16.7541 13.5774 15.7119 12.391 15.7119 10.9462C15.7119 9.50147 16.7318 8.31302 18.0249 8.31302C19.318 8.31302 20.3602 9.49939 20.338 10.9462C20.338 12.391 19.318 13.5774 18.0249 13.5774Z" fill="#FEFCF5"/>
</g>
<defs>
<clipPath id="clip0_68_313">
<rect width="25.7286" height="20" fill="white" transform="translate(0.886719)"/>
</clipPath>
</defs>
</svg>
