<svg width="29" height="20" viewBox="0 0 29 20" fill="none" xmlns="http://www.w3.org/2000/svg">
<path d="M27.877 3.17708C28.502 5.36458 28.502 10.0521 28.502 10.0521C28.502 10.0521 28.502 14.6875 27.877 16.9271C27.5645 18.1771 26.5749 19.1146 25.377 19.4271C23.1374 20 14.2833 20 14.2833 20C14.2833 20 5.37703 20 3.13745 19.4271C1.93953 19.1146 0.949951 18.1771 0.637451 16.9271C0.0124512 14.6875 0.0124512 10.0521 0.0124512 10.0521C0.0124512 10.0521 0.0124512 5.36458 0.637451 3.17708C0.949951 1.92708 1.93953 0.9375 3.13745 0.625C5.37703 0 14.2833 0 14.2833 0C14.2833 0 23.1374 0 25.377 0.625C26.5749 0.9375 27.5645 1.92708 27.877 3.17708ZM11.3666 14.2708L18.7624 10.0521L11.3666 5.83333V14.2708Z" fill="#FEFCF5"/>
</svg>
