<svg width="147" height="35" viewBox="0 0 147 35" fill="none" xmlns="http://www.w3.org/2000/svg">
<path d="M4.46677 5.57631C4.39993 4.64055 4.23283 3.98886 3.96547 3.62124C3.73153 3.25362 3.48088 2.95284 3.21352 2.7189C2.91274 2.48496 2.52841 2.35128 2.06053 2.31786C1.59265 2.25102 1.09135 2.2176 0.556628 2.2176L0.305978 2.01708L0.155588 1.11474L0.255848 0.914223C0.489788 0.914223 0.874118 0.930933 1.40884 0.964352C1.94356 0.997772 2.49499 1.03119 3.06313 1.06461C3.63127 1.09803 4.1827 1.13145 4.71742 1.16487C5.25213 1.19829 5.63646 1.215 5.8704 1.215H14.593C15.0275 1.215 15.6792 1.215 16.5481 1.215C17.4504 1.18158 18.3528 1.14816 19.2551 1.11474C20.1574 1.08132 20.9595 1.06461 21.6613 1.06461C22.3966 1.03119 22.8478 1.01448 23.0149 1.01448L23.2655 1.51578L23.065 6.97995H21.8117L21.6112 6.77943C21.5444 6.01077 21.4441 5.40921 21.3104 4.97475C21.2102 4.54029 20.876 4.2228 20.3078 4.02228C19.7731 3.82176 18.9543 3.70479 17.8515 3.67137C16.7486 3.63795 15.1946 3.62124 13.1894 3.62124H8.3769L8.27664 5.57631C8.24322 6.04419 8.2098 6.47865 8.17638 6.87969C8.17638 7.28073 8.15967 7.74861 8.12625 8.28333C8.12625 8.81805 8.12625 9.46974 8.12625 10.2384C8.12625 11.0071 8.12625 12.8117 8.12625 15.6524C9.12885 15.619 10.1315 15.6023 11.1341 15.6023C12.1367 15.6023 13.039 15.5856 13.8411 15.5522C14.6766 15.5188 15.3784 15.4519 15.9465 15.3517C16.5147 15.218 16.899 15.0342 17.0995 14.8002C17.3669 14.5329 17.6008 14.2655 17.8013 13.9981C18.0019 13.7308 18.1021 13.3465 18.1021 12.8452L18.3528 12.5945L19.205 12.4942L19.4055 12.5945C19.3387 13.3632 19.2718 14.0316 19.205 14.5997C19.1716 15.1678 19.1548 15.8195 19.1548 16.5548C19.1548 17.3569 19.1716 18.1088 19.205 18.8106C19.2718 19.479 19.3387 20.2143 19.4055 21.0163L19.205 21.1166L18.3026 21.0163L18.1021 20.8659C18.1021 20.3312 18.0019 19.8466 17.8013 19.4122C17.6008 18.9443 17.3669 18.56 17.0995 18.2592C16.899 18.0587 16.5147 17.9083 15.9465 17.808C15.3784 17.7078 14.6933 17.6409 13.8912 17.6075C13.0891 17.5741 12.1868 17.5574 11.1842 17.5574C10.1816 17.5574 9.16227 17.5574 8.12625 17.5574V22.42C8.12625 23.6231 8.12625 24.609 8.12625 25.3776C8.12625 26.1129 8.12625 26.7312 8.12625 27.2325C8.15967 27.7338 8.17638 28.1682 8.17638 28.5358C8.2098 28.87 8.24322 29.2377 8.27664 29.6387C8.34348 30.5745 8.51058 31.2261 8.77794 31.5938C9.07872 31.9614 9.36279 32.2622 9.63015 32.4961C9.93093 32.73 10.3654 32.8804 10.9335 32.9473C11.5351 32.9807 12.1032 32.9974 12.638 32.9974L12.8886 33.1979L13.039 34.1003L12.9387 34.3008C12.7048 34.3008 12.287 34.2841 11.6855 34.2506C11.1173 34.2172 10.5158 34.1838 9.8808 34.1504C9.24582 34.117 8.62755 34.0835 8.02599 34.0501C7.45785 34.0167 7.05681 34 6.82287 34H5.8704C5.63646 34 5.25213 34.0167 4.71742 34.0501C4.1827 34.0835 3.63127 34.117 3.06313 34.1504C2.49499 34.1838 1.94356 34.2172 1.40884 34.2506C0.874118 34.2841 0.489788 34.3008 0.255848 34.3008L0.155588 34.1003L0.305978 33.1979L0.556628 32.9974C1.09135 32.9974 1.59265 32.9807 2.06053 32.9473C2.52841 32.8804 2.91274 32.73 3.21352 32.4961C3.48088 32.2622 3.73153 31.9614 3.96547 31.5938C4.23283 31.2261 4.39993 30.5745 4.46677 29.6387C4.46677 29.4048 4.46677 29.1374 4.46677 28.8366C4.50019 28.5024 4.5169 28.1014 4.5169 27.6335C4.55032 27.1656 4.56703 26.5975 4.56703 25.9291C4.56703 25.2607 4.56703 24.4252 4.56703 23.4226V13.2462C4.56703 12.0765 4.56703 11.0906 4.56703 10.2885C4.56703 9.48645 4.55032 8.80134 4.5169 8.2332C4.5169 7.66506 4.50019 7.18047 4.46677 6.77943C4.46677 6.37839 4.46677 5.97735 4.46677 5.57631ZM35.0419 10.1883C37.0136 10.1883 38.7682 10.5392 40.3055 11.241C41.8428 11.9094 43.1295 12.8284 44.1655 13.9981C45.235 15.1344 46.037 16.4545 46.5718 17.9584C47.1399 19.4623 47.424 21.0163 47.424 22.6205C47.424 24.1578 47.1733 25.645 46.672 27.0821C46.1707 28.5191 45.4021 29.7891 44.366 30.8919C43.33 31.9948 42.0434 32.8804 40.506 33.5488C38.9687 34.2172 37.1807 34.5514 35.1421 34.5514C33.0367 34.5514 31.1986 34.2005 29.6278 33.4987C28.0571 32.7969 26.7537 31.8778 25.7177 30.7416C24.7151 29.6053 23.9631 28.3186 23.4618 26.8815C22.9605 25.4111 22.7099 23.9072 22.7099 22.3698C22.7099 20.7323 22.994 19.1782 23.5621 17.7078C24.1302 16.2373 24.9323 14.9506 25.9683 13.8478C27.0378 12.7115 28.3245 11.8258 29.8283 11.1909C31.3657 10.5225 33.1035 10.1883 35.0419 10.1883ZM35.092 32.5964C36.4956 32.5964 37.7322 32.3123 38.8016 31.7442C39.8711 31.176 40.7567 30.4241 41.4585 29.4883C42.1603 28.5525 42.6783 27.4998 43.0125 26.3301C43.3802 25.127 43.564 23.8905 43.564 22.6205C43.564 21.4174 43.3634 20.1975 42.9624 18.961C42.5948 17.7245 42.0434 16.6216 41.3081 15.6524C40.5729 14.6498 39.6705 13.8478 38.6011 13.2462C37.5317 12.6112 36.2951 12.2937 34.8915 12.2937C33.421 12.2937 32.151 12.5945 31.0816 13.1961C30.0456 13.7642 29.1767 14.5162 28.4748 15.4519C27.8064 16.3877 27.3051 17.4571 26.9709 18.6602C26.6367 19.8633 26.4696 21.0665 26.4696 22.2696C26.4696 23.5061 26.6535 24.7427 27.0211 25.9792C27.4221 27.1823 27.9903 28.2852 28.7255 29.2878C29.4607 30.257 30.3631 31.059 31.4325 31.694C32.5019 32.2956 33.7218 32.5964 35.092 32.5964ZM55.9423 16.254C56.2765 15.619 56.6441 14.9506 57.0451 14.2488C57.4796 13.547 57.9642 12.8953 58.4989 12.2937C59.0336 11.6922 59.6352 11.1909 60.3036 10.7898C61.0054 10.3888 61.7908 10.1883 62.6597 10.1883C63.2613 10.1883 63.9296 10.2885 64.6649 10.489C65.4335 10.6561 65.9516 10.8901 66.2189 11.1909L66.62 11.642L66.0184 15.502H64.3641C64.2638 15.0342 63.9965 14.6164 63.562 14.2488C63.161 13.8478 62.526 13.6472 61.6571 13.6472C60.8216 13.6472 60.0529 13.8979 59.3511 14.3992C58.6493 14.8671 58.031 15.4686 57.4963 16.2039C56.995 16.9391 56.594 17.7245 56.2932 18.56C56.0258 19.3621 55.8921 20.0973 55.8921 20.7657V25.2273C55.8921 25.9625 55.8921 26.5641 55.8921 27.0319C55.9256 27.4664 55.9423 27.8507 55.9423 28.1849C55.9757 28.4857 55.9924 28.7531 55.9924 28.987C56.0258 29.1875 56.0425 29.4048 56.0425 29.6387L56.0927 30.0899C56.1595 30.5912 56.2263 31.0758 56.2932 31.5436C56.3934 31.9781 56.5773 32.3123 56.8446 32.5462C57.0117 32.6799 57.2457 32.7802 57.5464 32.847C57.8806 32.9139 58.2148 32.964 58.549 32.9974C58.9167 33.0308 59.2676 33.0642 59.6018 33.0977C59.936 33.0977 60.2033 33.0977 60.4038 33.0977L60.6545 33.3483L60.7548 34L60.6545 34.2005C60.4206 34.2005 60.0362 34.1838 59.5015 34.1504C59.0002 34.117 58.4655 34.0835 57.8973 34.0501C57.3292 34.0501 56.7778 34.0334 56.2431 34C55.7418 34 55.3741 34 55.1402 34H53.9371C53.7031 34 53.3355 34 52.8342 34C52.3663 34.0334 51.865 34.0501 51.3303 34.0501C50.7956 34.0835 50.2776 34.117 49.7763 34.1504C49.3084 34.1838 48.9575 34.2005 48.7236 34.2005L48.6734 34L48.7236 33.2982L48.9241 33.0977C49.4588 33.0977 49.9768 33.081 50.4781 33.0475C51.0128 32.9807 51.4139 32.8136 51.6812 32.5462C51.9486 32.3123 52.1157 32.0115 52.1825 31.6439C52.2828 31.2763 52.3663 30.7583 52.4332 30.0899L52.4833 29.6387C52.5167 29.3045 52.5334 28.8867 52.5334 28.3854C52.5669 27.8841 52.5836 27.0319 52.5836 25.8288V19.6628C52.5836 18.961 52.5836 18.3762 52.5836 17.9083C52.5836 17.407 52.5669 16.9725 52.5334 16.6049C52.5334 16.2373 52.5167 15.9031 52.4833 15.6023C52.4833 15.3015 52.4666 14.984 52.4332 14.6498C52.3663 14.2822 52.2661 13.9647 52.1324 13.6974C51.9987 13.3966 51.8817 13.1961 51.7815 13.0958C51.4473 12.6948 51.0295 12.4608 50.5282 12.394C50.0269 12.2937 49.5089 12.2436 48.9742 12.2436L48.7737 12.0431V11.3413L48.9742 11.1909H49.8765C50.4447 11.1909 51.1632 11.1909 52.0321 11.1909C52.9011 11.1574 53.653 11.0906 54.288 10.9903L56.0425 10.7397L56.3433 11.1909C56.1428 11.8927 55.9924 12.6948 55.8921 13.5971C55.8253 14.4994 55.7919 15.3684 55.7919 16.2039L55.9423 16.254ZM88.6902 20.515L87.8881 20.8659C86.0834 20.8659 84.2286 20.8827 82.3237 20.9161C80.4188 20.9495 78.5472 20.9662 76.7091 20.9662H70.7938C70.7604 21.2001 70.7437 21.4341 70.7437 21.668C70.7437 21.8685 70.7437 22.0691 70.7437 22.2696C70.7437 23.5395 70.9275 24.7594 71.2951 25.9291C71.6627 27.0654 72.2309 28.068 72.9995 28.9369C73.8016 29.8058 74.8209 30.5076 76.0574 31.0423C77.294 31.5436 78.7979 31.7943 80.5691 31.7943C81.6052 31.7943 82.708 31.694 83.8777 31.4935C85.0808 31.2596 86.1837 30.8585 87.1863 30.2904L87.6876 30.5912V31.4935L87.1863 32.0449C86.3842 32.6799 85.2479 33.2648 83.7775 33.7995C82.307 34.3008 80.6694 34.5514 78.8647 34.5514C77.0935 34.5514 75.4726 34.2674 74.0021 33.6992C72.5651 33.0977 71.3118 32.2622 70.2424 31.1927C69.2064 30.1233 68.3876 28.8533 67.786 27.3828C67.2179 25.9124 66.9338 24.2748 66.9338 22.4701C66.9338 20.632 67.2346 18.961 67.8361 17.4571C68.4377 15.9532 69.2565 14.6665 70.2925 13.5971C71.3619 12.5277 72.5985 11.6922 74.0021 11.0906C75.4392 10.489 76.9765 10.1883 78.6141 10.1883C79.483 10.1883 80.4522 10.3052 81.5216 10.5392C82.6245 10.7731 83.6772 11.2243 84.6798 11.8927C85.6824 12.5277 86.5847 13.4467 87.3868 14.6498C88.1889 15.8195 88.7403 17.3736 89.0411 19.3119L88.6902 20.515ZM78.6642 12.4441C77.5948 12.4441 76.6256 12.6279 75.7567 12.9955C74.9212 13.3297 74.1692 13.7976 73.5008 14.3992C72.8658 14.9673 72.3311 15.6524 71.8967 16.4545C71.4956 17.2232 71.2116 18.042 71.0445 18.9109H72.9995C74.8042 18.9109 76.5587 18.8942 78.2632 18.8608C79.9676 18.7939 81.7556 18.7104 83.6271 18.6101C84.0615 18.5767 84.3456 18.4597 84.4793 18.2592C84.6464 18.0587 84.7299 17.8247 84.7299 17.5574C84.7299 17.3569 84.7132 17.173 84.6798 17.0059C84.6464 16.8388 84.5963 16.6717 84.5294 16.5046C84.1618 15.2347 83.4767 14.2488 82.4741 13.547C81.4715 12.8117 80.2015 12.4441 78.6642 12.4441ZM97.2778 15.2514C98.1467 13.8143 99.2663 12.6112 100.637 11.642C102.007 10.6729 103.711 10.1883 105.75 10.1883C106.686 10.1883 107.621 10.3219 108.557 10.5893C109.493 10.8567 110.345 11.2744 111.114 11.8426C111.916 12.4107 112.567 13.1459 113.069 14.0483C113.603 14.9172 113.954 15.9532 114.121 17.1563C114.222 18.0253 114.272 18.9443 114.272 19.9135C114.305 20.8827 114.322 21.8518 114.322 22.821C114.322 24.0241 114.322 25.244 114.322 26.4805C114.355 27.6836 114.372 28.8867 114.372 30.0899C114.439 30.8585 114.523 31.4267 114.623 31.7943C114.723 32.1285 114.873 32.3791 115.074 32.5462C115.375 32.8136 115.776 32.9807 116.277 33.0475C116.812 33.081 117.347 33.0977 117.881 33.0977L118.032 33.2982L118.132 34L118.032 34.2005C117.463 34.1337 116.829 34.0835 116.127 34.0501C115.425 34.0167 114.74 34 114.071 34C112.801 34 111.648 34.0501 110.612 34.1504L110.261 33.6491C110.395 33.2146 110.495 32.6465 110.562 31.9447C110.629 31.2429 110.679 30.6246 110.713 30.0899C110.779 28.6862 110.83 27.316 110.863 25.9792C110.896 24.609 110.913 23.4727 110.913 22.5704C110.913 21.8017 110.88 20.9662 110.813 20.0639C110.779 19.1615 110.679 18.3762 110.512 17.7078C110.178 16.137 109.493 14.9673 108.457 14.1987C107.421 13.43 106.218 13.0457 104.847 13.0457C103.745 13.0457 102.709 13.2796 101.739 13.7475C100.804 14.2154 100.002 14.8002 99.3332 15.502C98.6648 16.1704 98.13 16.889 97.729 17.6576C97.3614 18.3929 97.1776 19.0279 97.1776 19.5626V25.2273C97.1776 25.9625 97.1776 26.5641 97.1776 27.0319C97.1776 27.4998 97.1776 27.9009 97.1776 28.2351C97.211 28.5693 97.2444 28.8867 97.2778 29.1875C97.3112 29.4549 97.3447 29.7557 97.3781 30.0899C97.4449 30.7917 97.5118 31.3264 97.5786 31.694C97.6789 32.0282 97.8627 32.3123 98.13 32.5462C98.3974 32.7802 98.765 32.9306 99.2329 32.9974C99.7342 33.0642 100.235 33.0977 100.737 33.0977L100.987 33.3483L101.088 34L100.987 34.2005C100.754 34.2005 100.403 34.1838 99.9347 34.1504C99.4668 34.117 98.9655 34.0835 98.4308 34.0501C97.8961 34.0501 97.3948 34.0334 96.9269 34C96.459 34 96.1081 34 95.8742 34H95.1724C94.9384 34 94.5708 34 94.0695 34C93.6016 34.0334 93.1003 34.0501 92.5656 34.0501C92.0643 34.0835 91.563 34.117 91.0617 34.1504C90.5938 34.1838 90.2429 34.2005 90.009 34.2005L89.9588 34L90.009 33.2982L90.2095 33.0977C90.7442 33.0977 91.2622 33.081 91.7635 33.0475C92.2982 32.9807 92.6993 32.8136 92.9666 32.5462C93.234 32.3123 93.4011 32.0115 93.4679 31.6439C93.5682 31.2763 93.6518 30.7583 93.7186 30.0899C93.752 29.5551 93.7854 29.0204 93.8189 28.4857C93.8523 27.9176 93.869 27.0319 93.869 25.8288V19.6628C93.869 18.961 93.869 18.3762 93.869 17.9083C93.869 17.407 93.8523 16.9725 93.8189 16.6049C93.8189 16.2373 93.8021 15.9031 93.7687 15.6023C93.7687 15.3015 93.752 14.984 93.7186 14.6498C93.6518 14.2822 93.5515 13.9647 93.4178 13.6974C93.2841 13.3966 93.1672 13.1961 93.0669 13.0958C92.7327 12.6948 92.315 12.4608 91.8137 12.394C91.3124 12.2937 90.7943 12.2436 90.2596 12.2436L90.0591 12.0431V11.3413L90.2596 11.1909H91.162C91.7301 11.1909 92.4486 11.1909 93.3176 11.1909C94.1865 11.1574 94.9384 11.0906 95.5734 10.9903L97.328 10.7397L97.6287 11.1909C97.4616 11.6253 97.3447 12.2269 97.2778 12.9955C97.211 13.7308 97.1609 14.4493 97.1274 15.1511L97.2778 15.2514ZM125.215 15.2514C126.084 13.8143 127.203 12.6112 128.574 11.642C129.944 10.6729 131.648 10.1883 133.687 10.1883C134.623 10.1883 135.558 10.3219 136.494 10.5893C137.43 10.8567 138.282 11.2744 139.051 11.8426C139.853 12.4107 140.504 13.1459 141.006 14.0483C141.54 14.9172 141.891 15.9532 142.059 17.1563C142.159 18.0253 142.209 18.9443 142.209 19.9135C142.242 20.8827 142.259 21.8518 142.259 22.821C142.259 24.0241 142.259 25.244 142.259 26.4805C142.292 27.6836 142.309 28.8867 142.309 30.0899C142.376 30.8585 142.46 31.4267 142.56 31.7943C142.66 32.1285 142.81 32.3791 143.011 32.5462C143.312 32.8136 143.713 32.9807 144.214 33.0475C144.749 33.081 145.284 33.0977 145.818 33.0977L145.969 33.2982L146.069 34L145.969 34.2005C145.401 34.1337 144.766 34.0835 144.064 34.0501C143.362 34.0167 142.677 34 142.008 34C140.738 34 139.585 34.0501 138.549 34.1504L138.198 33.6491C138.332 33.2146 138.432 32.6465 138.499 31.9447C138.566 31.2429 138.616 30.6246 138.65 30.0899C138.717 28.6862 138.767 27.316 138.8 25.9792C138.833 24.609 138.85 23.4727 138.85 22.5704C138.85 21.8017 138.817 20.9662 138.75 20.0639C138.717 19.1615 138.616 18.3762 138.449 17.7078C138.115 16.137 137.43 14.9673 136.394 14.1987C135.358 13.43 134.155 13.0457 132.784 13.0457C131.682 13.0457 130.646 13.2796 129.676 13.7475C128.741 14.2154 127.939 14.8002 127.27 15.502C126.602 16.1704 126.067 16.889 125.666 17.6576C125.298 18.3929 125.115 19.0279 125.115 19.5626V25.2273C125.115 25.9625 125.115 26.5641 125.115 27.0319C125.115 27.4998 125.115 27.9009 125.115 28.2351C125.148 28.5693 125.181 28.8867 125.215 29.1875C125.248 29.4549 125.282 29.7557 125.315 30.0899C125.382 30.7917 125.449 31.3264 125.516 31.694C125.616 32.0282 125.8 32.3123 126.067 32.5462C126.334 32.7802 126.702 32.9306 127.17 32.9974C127.671 33.0642 128.173 33.0977 128.674 33.0977L128.924 33.3483L129.025 34L128.924 34.2005C128.691 34.2005 128.34 34.1838 127.872 34.1504C127.404 34.117 126.903 34.0835 126.368 34.0501C125.833 34.0501 125.332 34.0334 124.864 34C124.396 34 124.045 34 123.811 34H123.109C122.875 34 122.508 34 122.007 34C121.539 34.0334 121.037 34.0501 120.503 34.0501C120.001 34.0835 119.5 34.117 118.999 34.1504C118.531 34.1838 118.18 34.2005 117.946 34.2005L117.896 34L117.946 33.2982L118.147 33.0977C118.681 33.0977 119.199 33.081 119.701 33.0475C120.235 32.9807 120.636 32.8136 120.904 32.5462C121.171 32.3123 121.338 32.0115 121.405 31.6439C121.505 31.2763 121.589 30.7583 121.656 30.0899C121.689 29.5551 121.722 29.0204 121.756 28.4857C121.789 27.9176 121.806 27.0319 121.806 25.8288V19.6628C121.806 18.961 121.806 18.3762 121.806 17.9083C121.806 17.407 121.789 16.9725 121.756 16.6049C121.756 16.2373 121.739 15.9031 121.706 15.6023C121.706 15.3015 121.689 14.984 121.656 14.6498C121.589 14.2822 121.489 13.9647 121.355 13.6974C121.221 13.3966 121.104 13.1961 121.004 13.0958C120.67 12.6948 120.252 12.4608 119.751 12.394C119.249 12.2937 118.731 12.2436 118.197 12.2436L117.996 12.0431V11.3413L118.197 11.1909H119.099C119.667 11.1909 120.386 11.1909 121.255 11.1909C122.123 11.1574 122.875 11.0906 123.51 10.9903L125.265 10.7397L125.566 11.1909C125.399 11.6253 125.282 12.2269 125.215 12.9955C125.148 13.7308 125.098 14.4493 125.064 15.1511L125.215 15.2514Z" fill="#0E0F12"/>
</svg>
